<?xml version="1.0" standalone="no"?>
<!DOCTYPE svg PUBLIC "-//W3C//DTD SVG 20010904//EN"
 "http://www.w3.org/TR/2001/REC-SVG-20010904/DTD/svg10.dtd">
<svg version="1.0" xmlns="http://www.w3.org/2000/svg"
 width="512.000000pt" height="512.000000pt" viewBox="0 0 512.000000 512.000000"
 preserveAspectRatio="xMidYMid meet">
<metadata>
Created by potrace 1.14, written by Peter Selinger 2001-2017
</metadata>
<g transform="translate(0.000000,512.000000) scale(0.100000,-0.100000)"
fill="#000000" stroke="none">
<path d="M3760 5049 c0 -6 -4 -7 -10 -4 -5 3 -38 -23 -73 -57 -35 -35 -70 -64
-77 -66 -14 -3 -72 -62 -62 -62 4 -1 -3 -9 -15 -19 -12 -10 -19 -22 -15 -26 4
-5 2 -5 -4 -2 -6 3 -20 -2 -30 -11 -10 -10 -22 -19 -26 -20 -15 -4 -46 -40
-40 -46 3 -3 -4 -6 -16 -6 -12 0 -22 -3 -22 -8 0 -4 -16 -16 -35 -26 -19 -10
-32 -23 -29 -27 3 -5 1 -9 -4 -9 -11 0 -122 -104 -122 -114 0 -4 -6 -14 -12
-21 -26 -28 -68 -90 -67 -99 0 -5 -3 -12 -8 -15 -5 -3 -45 -69 -88 -146 -44
-77 -84 -143 -90 -147 -5 -4 -7 -8 -3 -8 4 0 -4 -12 -17 -26 -14 -15 -22 -30
-19 -35 3 -5 0 -9 -5 -9 -6 0 -11 -6 -11 -13 0 -20 -66 -147 -73 -140 -4 3 -9
-2 -13 -11 -3 -9 -12 -16 -18 -16 -10 0 -93 -84 -176 -178 -55 -63 -98 -153
-106 -222 -2 -14 -6 -43 -10 -65 -3 -22 -7 -52 -7 -67 -1 -16 -6 -28 -10 -28
-5 0 -7 -10 -5 -22 1 -13 -2 -24 -7 -25 -6 -2 -10 1 -10 6 0 5 -2 11 -5 13 -3
1 -4 1 -3 -1 2 -2 -5 -10 -15 -18 -9 -8 -11 -12 -4 -8 6 3 12 1 12 -4 0 -6 -6
-11 -12 -11 -9 0 -8 -4 2 -10 12 -8 12 -10 1 -10 -8 0 -11 -7 -8 -20 3 -11 0
-20 -5 -20 -6 0 -4 -8 3 -17 8 -9 9 -14 3 -10 -7 4 -15 0 -18 -9 -9 -22 -8
-26 6 -18 7 5 8 3 3 -6 -5 -8 -10 -41 -13 -74 -2 -34 -4 -69 -5 -78 -1 -10 -4
-18 -8 -18 -3 0 -6 -8 -6 -17 1 -35 -16 -103 -25 -103 -5 0 -7 -4 -4 -9 3 -4
-1 -46 -9 -92 -8 -46 -14 -93 -13 -104 0 -11 -3 -36 -7 -55 -4 -19 -8 -41 -8
-47 0 -7 -3 -13 -7 -13 -3 0 -6 -10 -7 -22 -1 -11 -8 -25 -15 -29 -7 -5 -8 -9
-3 -9 6 0 2 -5 -8 -11 -9 -6 -14 -15 -11 -21 5 -8 1 -9 -10 -5 -14 6 -17 3
-12 -10 6 -14 5 -15 -5 -6 -10 10 -15 9 -26 -5 -8 -9 -12 -11 -8 -4 6 11 -7
17 -28 13 -5 -1 -5 3 -2 9 4 6 13 9 21 6 18 -7 23 4 13 29 -6 17 -8 17 -8 3
-1 -20 -16 -24 -27 -6 -5 7 -3 8 6 3 10 -6 12 -4 7 8 -3 9 -2 19 4 23 6 4 6
11 -2 20 -9 11 -8 14 2 14 9 0 10 3 4 8 -12 9 -13 52 -1 71 7 10 6 12 -4 6
-10 -6 -12 -4 -7 8 3 9 0 23 -8 30 -10 11 -11 17 -2 26 8 8 6 14 -8 25 -11 7
-20 24 -21 37 -7 85 -9 99 -16 99 -4 0 -8 9 -8 19 0 11 -5 23 -10 26 -6 4 -7
11 -4 17 4 6 0 14 -7 19 -12 8 -12 11 1 19 12 8 12 10 1 10 -9 0 -10 4 -4 13
8 10 9 21 4 42 0 3 -7 0 -15 -7 -8 -7 -12 -16 -10 -19 2 -4 -5 -17 -16 -30
-12 -12 -23 -33 -26 -46 -4 -13 -11 -23 -16 -23 -6 0 -7 -7 -4 -16 3 -8 2 -13
-3 -10 -5 3 -12 -10 -15 -29 -4 -19 -12 -35 -19 -35 -8 0 -8 -3 2 -9 10 -7 10
-10 1 -13 -7 -2 -13 -18 -14 -36 -1 -21 -6 -32 -16 -32 -9 0 -11 -3 -5 -8 14
-10 17 -32 4 -32 -6 0 -9 -6 -6 -13 3 -8 1 -20 -4 -28 -7 -12 -10 -12 -21 0
-11 11 -11 13 1 6 9 -5 12 -4 7 3 -11 19 -26 14 -26 -9 0 -13 -4 -18 -12 -13
-9 5 -9 2 1 -9 12 -15 11 -17 -4 -17 -11 0 -15 -5 -12 -14 3 -8 3 -17 -1 -21
-4 -4 -8 -11 -8 -16 -1 -5 -3 -11 -4 -14 -1 -3 -3 -13 -4 -22 -1 -10 -5 -24
-10 -32 -6 -10 -5 -16 3 -19 8 -3 9 -8 2 -16 -5 -6 -11 -82 -12 -169 -1 -95
-6 -157 -12 -157 -5 0 -4 -6 2 -14 7 -8 8 -17 4 -19 -5 -3 -8 -51 -8 -106 0
-56 -4 -101 -8 -101 -5 0 -5 -4 -2 -10 12 -20 -13 -10 -44 17 -17 15 -31 36
-31 46 0 10 -4 15 -10 12 -5 -3 -10 0 -10 8 0 8 -6 27 -14 43 -17 34 -26 78
-41 199 -2 17 -4 30 -5 30 -2 0 -6 38 -13 141 -3 34 -8 67 -11 73 -4 6 0 11
11 12 16 0 16 1 -2 9 -11 5 -14 9 -7 9 9 1 10 7 4 19 -4 9 -7 27 -6 40 0 12
-3 25 -8 28 -5 3 -4 12 3 20 8 10 8 14 1 14 -6 0 -9 7 -5 16 4 12 0 15 -18 12
-13 -2 -23 -9 -22 -16 2 -6 -2 -12 -8 -12 -5 0 -7 -5 -4 -10 3 -6 -1 -13 -10
-16 -9 -4 -14 -13 -11 -20 3 -8 1 -14 -4 -14 -4 0 -14 -17 -21 -37 -6 -21 -14
-42 -18 -48 -3 -5 -6 -14 -6 -20 -2 -35 -20 -105 -33 -130 -9 -16 -17 -34 -18
-40 -1 -5 -6 -21 -12 -35 -5 -14 -9 -27 -9 -30 0 -3 -6 -16 -13 -30 -8 -14
-15 -38 -17 -55 -2 -16 -7 -43 -13 -58 -7 -20 -6 -26 2 -21 7 5 8 3 3 -5 -4
-7 -9 -32 -11 -54 -2 -23 -7 -49 -10 -57 -9 -24 -15 -65 -17 -127 -1 -32 -6
-64 -11 -72 -7 -11 -6 -12 5 -6 12 8 12 6 0 -8 -9 -12 -10 -17 -2 -17 9 0 9
-5 1 -20 -6 -11 -7 -20 -3 -20 5 0 9 -28 9 -63 1 -34 3 -68 5 -76 2 -7 -2 -16
-10 -19 -8 -3 -11 0 -7 7 4 6 2 11 -5 11 -7 0 -9 3 -6 6 4 4 -2 15 -14 25 -14
12 -16 18 -7 22 8 3 6 6 -5 6 -10 1 -16 4 -14 9 3 4 -1 13 -8 19 -11 10 -13 9
-12 -7 1 -11 5 -20 9 -20 4 0 5 -7 2 -15 -4 -8 -2 -15 3 -15 6 0 9 -14 8 -30
-1 -24 2 -30 14 -25 14 4 14 4 1 -7 -11 -9 -15 -26 -13 -51 2 -21 0 -36 -5
-33 -4 2 -7 -8 -6 -25 1 -16 -1 -29 -4 -29 -4 0 -7 -15 -6 -32 0 -18 -4 -38
-9 -45 -5 -7 -5 -18 -1 -24 4 -8 3 -9 -4 -5 -8 4 -12 0 -12 -11 0 -14 -2 -15
-9 -4 -5 7 -15 10 -22 7 -8 -4 -5 0 5 8 19 16 19 16 -3 16 -12 0 -19 4 -16 10
3 5 0 10 -7 10 -9 0 -9 3 2 10 11 7 11 10 2 10 -7 0 -10 5 -7 10 3 6 2 10 -2
10 -8 0 -14 21 -17 68 0 12 -5 22 -9 22 -5 0 -6 4 -2 9 3 5 1 12 -4 15 -5 3
-6 -10 -3 -32 3 -20 6 -51 6 -69 1 -18 5 -29 11 -25 6 3 4 -1 -3 -10 -10 -13
-10 -17 4 -22 14 -5 14 -9 3 -22 -7 -9 -14 -23 -15 -32 -2 -8 -9 -19 -16 -23
-8 -6 -1 -7 18 -3 24 5 31 2 31 -10 0 -12 -3 -13 -14 -4 -11 9 -12 7 -7 -8 6
-16 5 -17 -7 -6 -7 6 -18 12 -23 12 -6 0 -4 -5 4 -10 8 -5 10 -10 5 -10 -6 0
-11 -9 -11 -19 0 -11 4 -17 8 -15 8 5 11 -10 11 -49 0 -9 4 -17 9 -17 6 0 8
-9 5 -20 -3 -11 -1 -20 5 -20 5 0 6 -5 3 -10 -3 -6 0 -10 7 -10 9 0 9 -3 -2
-10 -19 -12 -33 -13 -26 -2 3 5 -1 9 -8 9 -17 0 -15 -17 7 -50 13 -20 14 -28
4 -33 -6 -4 -9 -4 -5 1 8 8 -31 42 -44 38 -9 -3 -69 73 -62 79 2 3 -4 11 -13
19 -16 12 -17 12 -6 -2 10 -12 10 -18 0 -28 -9 -10 -9 -12 3 -9 8 2 14 -3 15
-10 0 -7 7 -17 15 -22 13 -9 13 -10 0 -10 -12 -1 -11 -3 3 -11 9 -6 15 -15 12
-20 -4 -5 -10 -7 -14 -5 -17 11 -6 -26 15 -49 12 -13 19 -27 15 -32 -3 -4 3
-1 13 7 13 10 17 10 12 2 -7 -11 13 -40 31 -45 4 -1 7 -5 6 -8 -1 -4 7 -5 17
-2 12 3 20 0 20 -6 0 -7 5 -9 10 -6 6 3 10 1 10 -4 0 -6 -21 -10 -50 -10 -27
1 -48 5 -45 9 2 4 -2 7 -9 7 -24 0 -13 -23 12 -25 14 -1 38 -8 53 -16 20 -10
29 -11 33 -2 2 6 5 4 5 -5 1 -20 28 -33 35 -16 3 8 5 8 5 1 1 -18 -26 -37 -34
-24 -5 8 -11 7 -23 -2 -12 -10 -14 -10 -8 0 4 6 2 12 -3 12 -15 0 -14 -30 2
-30 6 0 4 -5 -6 -11 -13 -8 -15 -15 -7 -28 5 -10 7 -20 5 -23 -3 -3 2 -5 10
-5 11 0 12 4 5 11 -5 5 -10 17 -10 26 1 12 2 12 11 -2 5 -9 16 -15 24 -12 9 4
13 -1 12 -14 0 -12 -5 -18 -11 -15 -5 4 -7 -1 -3 -11 4 -10 3 -15 -3 -11 -6 4
-17 -1 -26 -9 -9 -9 -21 -13 -27 -9 -7 3 -9 3 -5 -2 4 -4 3 -14 -3 -21 -7 -8
-6 -14 2 -20 7 -4 9 -3 6 3 -4 6 1 17 11 24 16 13 16 13 2 -5 -8 -11 -15 -22
-15 -25 0 -3 -4 -5 -9 -3 -13 4 -25 -18 -19 -35 3 -7 10 -10 16 -6 6 3 7 1 3
-6 -4 -6 -12 -9 -17 -6 -5 4 -9 1 -9 -5 0 -6 -4 -9 -10 -5 -5 3 -7 13 -4 23 5
14 4 14 -4 2 -14 -19 3 -40 29 -35 11 2 17 0 14 -6 -4 -5 -10 -7 -13 -5 -4 2
-18 -2 -32 -11 -14 -8 -17 -12 -8 -9 12 3 15 1 11 -9 -3 -8 -9 -13 -13 -10 -5
3 -5 -8 0 -25 6 -20 5 -30 -2 -30 -6 0 -8 -3 -5 -7 4 -3 -5 -17 -19 -30 -14
-12 -21 -23 -17 -23 4 0 0 -5 -9 -11 -10 -5 -18 -17 -18 -24 0 -8 -5 -15 -11
-15 -6 0 -8 -9 -4 -21 5 -14 4 -19 -4 -15 -7 5 -9 1 -5 -8 9 -23 72 -24 86 -2
4 6 8 7 8 1 0 -5 14 10 30 35 16 25 30 42 30 38 0 -4 10 3 23 15 13 12 22 25
20 28 -3 7 27 23 39 21 5 -1 7 1 7 6 -3 19 2 30 17 36 14 5 15 4 4 -9 -11 -13
-10 -14 4 -9 11 4 16 1 16 -11 0 -9 -4 -14 -9 -10 -5 3 -12 1 -15 -4 -4 -5 2
-8 11 -6 10 1 24 -3 32 -9 11 -8 13 -8 7 1 -4 7 -3 13 3 13 5 0 8 9 6 20 -2
11 1 23 7 26 6 4 8 3 5 -3 -9 -14 19 -37 32 -28 6 3 8 0 5 -8 -3 -8 -2 -17 3
-20 4 -3 8 8 8 23 1 16 -3 26 -8 23 -5 -3 -3 4 4 15 7 12 16 19 20 16 4 -2 5
5 2 16 -9 34 4 53 27 40 15 -8 20 -8 20 1 0 7 3 9 6 6 4 -4 1 -13 -6 -22 -11
-13 -10 -14 5 -9 11 5 16 4 12 -3 -4 -5 0 -19 9 -29 14 -18 15 -18 4 3 -13 27
-3 29 27 8 14 -10 20 -21 16 -32 -5 -12 -2 -15 9 -10 20 7 31 -3 18 -18 -10
-12 76 -113 87 -101 4 3 -6 19 -20 34 -15 16 -24 31 -20 35 3 4 2 7 -4 7 -12
0 -24 24 -28 58 -3 19 1 22 25 20 16 -1 28 -5 27 -8 -1 -3 3 -6 8 -8 6 -1 11
7 11 18 1 11 -3 17 -7 14 -5 -3 -9 2 -9 10 0 9 -5 16 -11 16 -5 0 -7 5 -4 10
3 6 2 10 -4 10 -5 0 -8 9 -6 20 2 11 0 20 -4 20 -4 0 -8 6 -8 14 0 8 8 14 18
13 9 -1 15 -7 12 -14 -3 -7 2 -13 11 -13 15 0 21 -12 17 -34 -1 -5 6 -3 15 5
12 9 15 9 10 2 -4 -8 -2 -13 4 -13 6 0 8 -5 4 -12 -5 -9 -2 -9 9 1 15 12 17
11 17 -2 0 -11 5 -14 17 -10 10 4 14 2 10 -4 -8 -12 20 -26 34 -17 5 3 9 2 9
-3 0 -4 17 -9 38 -10 27 -1 32 1 17 7 -11 4 -23 6 -27 4 -4 -3 -9 0 -13 5 -3
6 4 8 16 6 16 -3 20 0 15 13 -6 16 -5 16 8 0 7 -10 21 -18 30 -18 11 0 15 -5
10 -12 -5 -10 -4 -10 6 -1 11 10 11 15 0 28 -10 13 -15 13 -21 3 -5 -8 -8 -5
-6 9 1 23 1 23 22 3 12 -11 25 -17 30 -13 4 5 5 3 2 -4 -8 -12 10 -12 31 0 21
14 13 25 -16 21 -19 -2 -36 4 -53 20 -13 12 -30 21 -37 20 -7 -1 -8 0 -2 3 5
2 8 8 6 12 -3 4 1 8 9 8 8 0 13 -5 12 -11 -1 -6 4 -10 11 -8 8 1 11 -2 8 -7
-4 -5 -2 -12 4 -16 10 -6 14 6 11 35 -2 13 -1 13 8 0 6 -8 11 -10 11 -5 0 6 9
-1 20 -15 15 -18 18 -20 13 -6 -5 14 -3 17 7 11 9 -6 11 -4 5 5 -5 9 -2 10 12
6 13 -4 25 0 34 11 7 10 9 15 5 11 -5 -4 -16 -2 -24 5 -9 6 -13 7 -10 2 4 -6
-4 -15 -18 -22 -18 -8 -26 -8 -35 3 -14 17 -3 35 18 27 10 -4 14 -2 10 4 -12
19 17 21 38 4 12 -9 15 -10 8 -1 -14 16 -17 31 -5 28 14 -3 42 14 36 23 -3 5
-11 6 -17 3 -7 -4 -9 -3 -4 1 11 13 47 13 40 1 -4 -6 1 -5 10 3 9 7 17 10 17
5 0 -5 5 -1 11 10 9 14 8 21 -2 28 -11 8 -11 9 1 5 8 -2 14 -12 14 -21 -1 -9
3 -16 8 -16 6 0 8 10 5 22 -3 13 1 32 9 42 10 14 14 16 14 5 0 -9 3 -10 8 -4
4 6 22 18 40 27 25 11 30 17 18 21 -9 4 -16 12 -16 19 0 9 3 8 10 -2 7 -11 10
-11 10 -2 0 7 4 11 9 7 5 -3 13 -1 16 5 4 6 15 8 25 5 12 -4 22 1 29 12 6 10
11 12 11 6 0 -7 5 -13 11 -13 5 0 7 5 4 10 -3 6 2 10 12 10 14 0 15 2 4 9 -9
6 -10 11 -2 15 6 4 8 12 5 18 -4 7 -2 8 4 4 7 -4 12 -4 13 1 0 4 2 18 5 31 2
12 -1 22 -7 22 -8 0 -8 4 0 13 6 8 8 17 4 20 -3 4 0 7 7 7 7 0 10 3 7 6 -10
10 25 64 42 64 8 0 12 2 9 5 -6 7 60 75 73 75 5 0 9 3 9 8 0 4 17 16 38 27 20
11 42 24 49 30 7 5 18 15 25 21 7 5 37 26 65 45 29 20 50 39 46 42 -3 4 -2 7
3 7 5 0 22 11 38 25 16 14 35 26 43 26 26 3 31 4 38 11 4 4 13 4 20 2 7 -3 16
-1 20 5 3 6 16 11 29 11 12 0 27 5 33 11 6 6 18 11 27 13 9 1 31 15 50 32 19
16 49 40 67 54 18 14 38 31 46 38 7 7 13 10 13 6 0 -4 7 1 15 12 8 10 15 15
15 9 0 -5 10 6 22 25 12 19 21 38 20 42 -1 5 3 8 9 8 5 0 8 4 5 9 -3 5 0 14 8
20 8 7 17 23 20 37 4 14 10 23 15 20 4 -3 7 4 6 16 -1 11 -9 24 -18 30 -14 7
-15 5 -10 -9 6 -16 5 -17 -12 -3 -10 8 -16 10 -12 4 12 -20 -28 -22 -52 -3
-19 15 -20 19 -7 19 11 0 14 5 10 12 -5 8 -2 9 9 5 9 -3 19 -1 23 5 5 7 2 8
-6 3 -8 -5 -11 -3 -9 4 3 7 8 11 13 9 4 -2 14 9 22 25 8 15 19 27 23 27 5 0
12 12 16 27 3 15 10 30 15 33 4 3 10 14 12 25 3 20 34 55 48 55 4 0 17 9 30
20 12 11 27 17 33 13 5 -3 7 -2 4 3 -3 5 10 20 29 33 18 13 31 27 28 32 -3 5
0 9 6 9 6 0 24 14 40 30 17 17 30 28 30 24 0 -4 8 3 19 14 10 12 21 19 25 15
3 -3 6 -1 6 6 0 7 4 9 10 6 6 -3 7 1 4 9 -3 9 -1 16 5 16 6 0 11 5 11 10 0 21
66 104 147 187 45 46 85 93 88 103 4 11 11 20 17 20 6 0 8 9 5 20 -3 11 -1 22
3 25 5 3 9 24 9 48 0 23 2 49 4 57 10 43 19 76 23 88 2 7 3 13 2 15 0 1 10 22
23 47 13 25 24 47 25 50 1 3 5 15 9 28 4 12 12 22 17 22 6 0 8 6 5 14 -3 8 1
17 9 20 9 3 12 11 9 16 -4 6 -3 16 2 23 14 19 16 77 3 77 -6 0 -8 -5 -4 -12 4
-7 3 -8 -5 -4 -8 6 -9 11 -1 20 5 7 11 26 12 42 1 16 6 32 11 35 19 13 24 239
7 279 -1 3 -2 8 -1 13 0 4 -5 7 -11 7 -9 0 -8 4 2 10 9 6 10 10 3 10 -11 0
-11 17 -1 148 1 6 4 12 8 12 3 0 5 14 4 30 -1 17 3 30 8 30 6 0 8 6 5 14 -3 8
-3 17 1 20 3 4 7 14 8 24 1 9 5 31 9 47 4 17 8 37 10 45 2 8 4 16 5 18 6 6 25
133 22 145 -1 4 2 7 8 7 6 0 6 9 0 25 -5 14 -6 25 -1 25 4 0 8 57 9 128 3 289
3 388 -3 412 -3 14 -8 39 -10 55 -3 17 -10 44 -16 61 -5 17 -12 42 -14 55 -23
120 -75 228 -131 277 -24 20 -44 43 -44 50 0 7 -4 10 -10 7 -5 -3 -10 -2 -10
3 0 12 -25 22 -62 27 -16 2 -28 -1 -28 -6z m-630 -3427 c0 -12 -3 -12 -15 -2
-8 7 -15 13 -15 15 0 1 7 2 15 2 8 0 15 -7 15 -15z m-1963 -547 c0 -8 -4 -15
-9 -15 -4 0 -8 7 -8 15 0 8 4 15 8 15 5 0 9 -7 9 -15z m-2 -175 c-3 -5 -11
-10 -16 -10 -6 0 -7 5 -4 10 3 6 11 10 16 10 6 0 7 -4 4 -10z m-56 -43 c-3
-26 2 -38 13 -31 8 5 9 2 5 -9 -3 -9 -1 -19 5 -23 7 -4 8 -3 4 4 -10 17 3 15
21 -3 8 -9 12 -19 9 -23 -4 -3 -10 -2 -14 3 -4 6 -14 11 -22 13 -8 2 -16 8
-18 13 -2 5 -15 9 -28 9 -15 0 -23 4 -19 10 4 6 11 7 17 4 6 -4 8 -2 4 4 -3 6
-2 13 4 17 5 3 10 12 10 18 0 8 -3 8 -9 -1 -4 -8 -12 -14 -17 -14 -5 0 -8 -4
-6 -10 1 -5 -2 -8 -8 -6 -19 6 -14 22 11 35 25 13 40 9 38 -10z m86 -37 c3 -6
-1 -7 -9 -4 -18 7 -21 14 -7 14 6 0 13 -4 16 -10z m940 -160 c3 -6 -1 -7 -9
-4 -18 7 -21 14 -7 14 6 0 13 -4 16 -10z m-375 -249 c13 -13 12 -14 -5 -7 -11
4 -25 9 -32 10 -23 4 -22 12 1 12 12 0 29 -7 36 -15z m10 -31 c0 -5 -2 -10 -4
-10 -3 0 -8 5 -11 10 -3 6 -1 10 4 10 6 0 11 -4 11 -10z m-276 -32 c-4 -6 1
-8 15 -3 12 4 21 2 21 -4 0 -6 -6 -11 -12 -11 -10 0 -10 -2 0 -9 11 -7 10 -9
-3 -14 -9 -4 -13 -3 -10 3 3 5 -8 19 -24 31 -33 24 -32 46 0 29 11 -6 17 -16
13 -22z m47 -95 c13 -16 12 -17 -3 -4 -17 13 -22 21 -14 21 2 0 10 -8 17 -17z"/>
<path d="M2125 2701 c-3 -5 -2 -12 3 -15 5 -3 9 1 9 9 0 17 -3 19 -12 6z"/>
<path d="M1113 1405 c0 -14 3 -25 8 -25 4 0 6 10 4 21 -6 32 -12 34 -12 4z"/>
<path d="M1090 961 c0 -6 4 -13 10 -16 6 -3 7 1 4 9 -7 18 -14 21 -14 7z"/>
<path d="M1065 639 c-5 -7 -4 -10 3 -5 6 3 14 0 19 -8 8 -14 12 -16 34 -16 5
0 8 -4 4 -10 -3 -5 -11 -8 -18 -6 -7 1 -9 1 -5 -1 4 -3 10 -4 14 -3 4 1 11 -4
16 -12 8 -10 9 -9 4 4 -3 10 -1 20 3 23 16 9 1 41 -19 41 -10 0 -16 -4 -14 -8
8 -12 -10 -10 -23 3 -8 8 -13 7 -18 -2z m70 -19 c3 -6 -1 -7 -9 -4 -18 7 -21
14 -7 14 6 0 13 -4 16 -10z"/>
<path d="M1865 420 c-3 -5 -1 -10 4 -10 6 0 11 5 11 10 0 6 -2 10 -4 10 -3 0
-8 -4 -11 -10z"/>
<path d="M1610 300 c0 -5 7 -10 16 -10 8 0 12 5 9 10 -3 6 -10 10 -16 10 -5 0
-9 -4 -9 -10z"/>
<path d="M1306 265 c4 -8 11 -15 16 -15 6 0 5 6 -2 15 -7 8 -14 15 -16 15 -2
0 -1 -7 2 -15z"/>
</g>
</svg>
